<?xml version="1.0" standalone="no"?>
<!DOCTYPE svg PUBLIC "-//W3C//DTD SVG 20010904//EN"
 "http://www.w3.org/TR/2001/REC-SVG-20010904/DTD/svg10.dtd">
<svg version="1.0" xmlns="http://www.w3.org/2000/svg"
 width="272.000000pt" height="272.000000pt" viewBox="0 0 272.000000 272.000000"
 preserveAspectRatio="xMidYMid meet">
<metadata>
Created by potrace 1.14, written by Peter Selinger 2001-2017
</metadata>
<g transform="translate(0.000000,272.000000) scale(0.100000,-0.100000)"
fill="#000000" stroke="none">
<path d="M418 1735 c-3 -4 -12 -7 -20 -9 -28 -4 -75 -39 -98 -74 -25 -35 -25
-36 -28 -326 -2 -188 0 -304 7 -327 13 -44 65 -101 106 -117 50 -20 59 -21
218 -22 9 0 23 -1 30 -1 45 -6 154 26 181 53 19 19 50 69 54 87 2 9 5 140 6
291 2 300 -2 335 -50 383 -56 56 -90 65 -252 66 -81 1 -151 -1 -154 -4z m287
-135 c32 -17 36 -55 33 -342 -3 -211 -5 -239 -21 -255 -14 -15 -37 -18 -130
-19 -133 -1 -143 1 -164 33 -14 21 -16 62 -15 283 0 165 5 266 12 279 6 11 24
24 40 28 47 12 218 7 245 -7z"/>
<path d="M1123 1728 c-13 -16 -15 -829 -2 -850 9 -14 112 -18 126 -4 4 4 8 90
8 192 -1 101 3 184 8 184 4 0 6 3 4 8 -6 9 107 7 122 -2 6 -4 11 -4 11 1 0 4
18 8 40 8 22 0 40 -4 40 -8 0 -5 5 -5 12 -1 6 4 26 8 43 9 88 3 164 71 181
161 25 133 -13 241 -103 292 -38 22 -474 30 -490 10z m433 -133 c13 -13 24
-32 25 -42 4 -86 2 -109 -13 -134 -10 -16 -26 -30 -35 -30 -55 -4 -250 -6
-263 -3 -13 3 -15 22 -14 107 1 56 2 107 3 114 1 9 37 12 137 12 130 -1 138
-2 160 -24z"/>
<path d="M1894 1715 c-10 -39 4 -95 24 -96 9 -1 93 -2 186 -3 175 -1 195 -6
161 -40 -9 -9 -14 -16 -10 -16 5 0 -23 -48 -35 -60 -6 -6 -18 -26 -69 -115
-61 -106 -75 -130 -82 -135 -4 -3 -15 -21 -25 -40 -11 -19 -35 -60 -55 -90
-19 -30 -44 -71 -55 -90 -10 -19 -23 -38 -28 -41 -16 -12 -19 -104 -4 -116 12
-10 181 -20 213 -13 6 1 12 2 15 1 17 -6 163 -5 167 2 2 4 12 3 22 -3 10 -5
21 -6 25 -3 4 4 26 6 51 6 47 -1 57 9 60 67 2 51 -14 55 -212 54 -101 -1 -183
0 -183 2 0 10 24 54 30 54 4 0 7 6 7 13 0 13 40 76 56 88 5 3 9 10 8 15 0 5
10 25 21 44 12 19 30 49 39 66 10 17 36 60 58 95 22 35 52 85 67 111 15 27 32
45 38 41 6 -3 8 -3 4 2 -4 4 9 37 29 74 37 67 46 127 21 142 -7 4 -130 8 -275
8 l-263 0 -6 -24z"/>
<path d="M338 633 c7 -3 16 -2 19 1 4 3 -2 6 -13 5 -11 0 -14 -3 -6 -6z"/>
<path d="M418 633 c7 -3 16 -2 19 1 4 3 -2 6 -13 5 -11 0 -14 -3 -6 -6z"/>
<path d="M478 633 c7 -3 16 -2 19 1 4 3 -2 6 -13 5 -11 0 -14 -3 -6 -6z"/>
<path d="M688 633 c7 -3 16 -2 19 1 4 3 -2 6 -13 5 -11 0 -14 -3 -6 -6z"/>
<path d="M838 633 c7 -3 16 -2 19 1 4 3 -2 6 -13 5 -11 0 -14 -3 -6 -6z"/>
<path d="M898 633 c7 -3 16 -2 19 1 4 3 -2 6 -13 5 -11 0 -14 -3 -6 -6z"/>
<path d="M1588 633 c6 -2 18 -2 25 0 6 3 1 5 -13 5 -14 0 -19 -2 -12 -5z"/>
<path d="M1908 633 c7 -3 16 -2 19 1 4 3 -2 6 -13 5 -11 0 -14 -3 -6 -6z"/>
<path d="M2278 633 c7 -3 16 -2 19 1 4 3 -2 6 -13 5 -11 0 -14 -3 -6 -6z"/>
<path d="M2318 633 c7 -3 16 -2 19 1 4 3 -2 6 -13 5 -11 0 -14 -3 -6 -6z"/>
<path d="M2358 633 c7 -3 16 -2 19 1 4 3 -2 6 -13 5 -11 0 -14 -3 -6 -6z"/>
<path d="M2398 633 c7 -3 16 -2 19 1 4 3 -2 6 -13 5 -11 0 -14 -3 -6 -6z"/>
<path d="M2558 633 c7 -3 16 -2 19 1 4 3 -2 6 -13 5 -11 0 -14 -3 -6 -6z"/>
</g>
</svg>
